<?xml version="1.0" standalone="no"?>
<!DOCTYPE svg PUBLIC "-//W3C//DTD SVG 20010904//EN"
 "http://www.w3.org/TR/2001/REC-SVG-20010904/DTD/svg10.dtd">
<svg version="1.0" xmlns="http://www.w3.org/2000/svg"
 width="700.000000pt" height="700.000000pt" viewBox="0 0 700.000000 700.000000"
 preserveAspectRatio="xMidYMid meet">
<metadata>
Created by potrace 1.14, written by Peter Selinger 2001-2017
</metadata>
<g transform="translate(0.000000,700.000000) scale(0.100000,-0.100000)"
fill="#000000" stroke="none">
<path d="M3220 6994 c-182 -20 -243 -29 -360 -50 -786 -142 -1524 -572 -2041
-1189 -436 -522 -692 -1103 -796 -1810 -25 -173 -25 -717 0 -890 70 -477 202
-877 416 -1258 281 -503 667 -917 1146 -1229 449 -293 903 -461 1470 -545 152
-22 705 -26 855 -5 823 113 1504 445 2065 1007 493 492 830 1119 959 1783 55
283 61 346 61 692 0 346 -6 409 -61 692 -148 762 -575 1482 -1179 1989 -517
433 -1119 699 -1800 795 -114 15 -640 29 -735 18z m-1151 -2855 c168 -275 307
-502 311 -504 3 -2 143 223 312 498 l306 502 256 3 256 2 0 -1130 0 -1130
-255 0 -255 0 0 657 c0 486 -3 654 -11 646 -6 -6 -138 -220 -294 -475 -262
-431 -284 -463 -311 -466 -30 -3 -36 6 -320 472 -159 262 -292 476 -296 476
-5 0 -8 -295 -8 -655 l0 -655 -255 0 -255 0 0 1130 0 1130 258 0 257 -1 304
-500z m2651 -114 c239 -338 438 -614 443 -615 4 0 7 277 7 615 l0 615 250 0
250 0 0 -1130 0 -1130 -188 0 -187 0 -433 610 c-239 335 -438 610 -443 610 -5
0 -9 -246 -9 -610 l0 -610 -250 0 -250 0 0 1130 0 1130 188 0 187 0 435 -615z"/>
</g>
</svg>
